<?xml version="1.0" encoding="UTF-8" standalone="no"?>
<svg width="20px" height="21px" viewBox="0 0 20 21" version="1.1" xmlns="http://www.w3.org/2000/svg" xmlns:xlink="http://www.w3.org/1999/xlink">
    <!-- Generator: Sketch 41.2 (35397) - http://www.bohemiancoding.com/sketch -->
    <title>Page 1</title>
    <desc>Created with Sketch.</desc>
    <defs></defs>
    <g id="Symbols" stroke="none" stroke-width="1" fill="none" fill-rule="evenodd">
        <g id="Left-Nav" transform="translate(-45.000000, -84.000000)" fill="#8FA0B2">
            <g id="Newsfeed">
                <g transform="translate(42.000000, 42.105263)">
                    <g id="Group-8">
                        <g id="browse" transform="translate(3.000000, 41.894737)">
                            <path d="M8.0868966,14.2669356 C5.0680424,14.2669356 2.62054135,11.6907961 2.62054135,8.51287746 C2.62054135,5.33495883 5.0680424,2.75864194 8.0868966,2.75864194 C11.1059193,2.75864194 13.5532519,5.33495883 13.5532519,8.51287746 C13.5532519,11.6907961 11.1059193,14.2669356 8.0868966,14.2669356 M19.5399075,17.8769008 L14.9385853,13.033049 C15.7203838,11.7227207 16.1741302,10.1743766 16.1741302,8.51252274 C16.1741302,3.81073555 12.5532574,0 8.0868966,0 C3.62053576,0 -1.42108547e-14,3.81073555 -1.42108547e-14,8.51252274 C-1.42108547e-14,13.2141326 3.62036727,17.0248681 8.0868966,17.0248681 C9.80499987,17.0248681 11.3963979,16.4592703 12.7059103,15.4985165 L17.2524729,20.284904 C17.5683937,20.6170974 17.9825447,20.782396 18.3961902,20.782396 C18.8103412,20.782396 19.2239867,20.6170974 19.5404129,20.284904 C20.1717489,19.6196303 20.1717489,18.541997 19.5399075,17.8769008" id="Page-1"></path>
                        </g>
                    </g>
                </g>
            </g>
        </g>
    </g>
</svg>