<?xml version="1.0" encoding="UTF-8" standalone="no"?>
<svg width="21px" height="18px" viewBox="0 0 21 18" version="1.1" xmlns="http://www.w3.org/2000/svg" xmlns:xlink="http://www.w3.org/1999/xlink">
    <!-- Generator: Sketch 41.2 (35397) - http://www.bohemiancoding.com/sketch -->
    <title>Page 1</title>
    <desc>Created with Sketch.</desc>
    <defs>
        <polygon id="path-1" points="0 17.6172556 20.4182978 17.6172556 20.4182978 0 0 0"></polygon>
    </defs>
    <g id="Symbols" stroke="none" stroke-width="1" fill="none" fill-rule="evenodd">
        <g id="Left-Nav" transform="translate(-48.000000, -166.000000)">
            <g id="Newsfeed">
                <g transform="translate(42.000000, 42.105263)">
                    <g id="Group-8">
                        <g id="report" transform="translate(6.000000, 122.894737)">
                            <g id="Page-1" transform="translate(0.000000, 1.000000)">
                                <g id="icon">
                                    <mask id="mask-2" fill="white">
                                        <use xlink:href="#path-1"></use>
                                    </mask>
                                    <g id="Clip-2"></g>
                                    <path d="M10.2091489,13.4793175 C9.64491808,13.4793175 9.0707119,13.4376532 8.50274032,13.35555 C7.98589242,13.2746723 7.47777294,13.467676 7.14048137,13.871452 C6.95344353,14.0950912 6.47649703,14.5570747 5.86862404,14.9914862 C6.00079745,14.5705543 6.06937799,14.1771944 6.07748296,13.7942505 C6.08122372,13.7476845 6.08371756,13.702344 6.08371756,13.6637432 C6.08371756,13.1141422 5.77448166,12.617847 5.27633754,12.3678612 C3.046223,11.247827 1.71451356,9.45932602 1.71451356,7.58198205 C1.71451356,4.33032915 5.52509787,1.68464662 10.2091489,1.68464662 C14.8925765,1.68464662 18.7037843,4.33032915 18.7037843,7.58198205 C18.7037843,10.8342476 14.8925765,13.4793175 10.2091489,13.4793175 M10.2091489,-0.000306355087 C4.5799333,-0.000306355087 0,3.40146053 0,7.58198205 C0,10.059782 1.62972307,12.3813408 4.36234595,13.7997649 C4.323068,14.6636862 3.74761491,15.5950057 3.36481079,16.2150684 L3.30495868,16.3100385 C3.25321154,16.3915289 3.20832246,16.4613779 3.18961867,16.5030422 C3.16280992,16.5618624 3.11729738,16.7946922 3.11729738,16.8308421 C3.11729738,17.2634155 3.47578657,17.6151111 3.91594896,17.6151111 L4.02256053,17.617562 C4.05498043,17.617562 4.10423372,17.6059205 4.1123387,17.6034696 C5.93969842,17.3099815 7.68413803,15.8168068 8.37929535,15.0398903 C8.99402639,15.1226062 9.60938089,15.1642704 10.2091489,15.1642704 C15.8383645,15.1642704 20.4182978,11.7631163 20.4182978,7.58198205 C20.4182978,3.40146053 15.8383645,-0.000306355087 10.2091489,-0.000306355087" id="Fill-1" fill="#5aa9f0" mask="url(#mask-2)"></path>
                                </g>
                            </g>
                        </g>
                    </g>
                </g>
            </g>
        </g>
    </g>
</svg>