<?xml version="1.0" encoding="UTF-8" standalone="no"?>
<svg width="27px" height="23px" viewBox="0 0 27 23" version="1.1" xmlns="http://www.w3.org/2000/svg" xmlns:xlink="http://www.w3.org/1999/xlink">
    <!-- Generator: Sketch 41.2 (35397) - http://www.bohemiancoding.com/sketch -->
    <title>newsfeed icon</title>
    <desc>Created with Sketch.</desc>
    <defs></defs>
    <g id="Symbols" stroke="none" stroke-width="1" fill="none" fill-rule="evenodd">
        <g id="Left-Nav" transform="translate(-42.000000, -42.000000)" fill="#8999AB">
            <g id="Newsfeed">
                <g transform="translate(42.000000, 42.105263)">
                    <g id="Group-8">
                        <g id="neewsf">
                            <g id="newsfeed-icon">
                                <path d="M25.3125,18.4210526 C25.3125,19.4367434 24.5554453,20.2631579 23.625,20.2631579 L4.91484375,20.2631579 C5.00871094,19.9746382 5.0625,19.6653947 5.0625,19.3421053 L5.0625,1.84210526 L25.3125,1.84210526 L25.3125,18.4210526 Z M1.6875,6.44736842 L3.375,6.44736842 L3.375,19.3421053 C3.375,19.8500658 2.99657813,20.2631579 2.53125,20.2631579 C2.06592187,20.2631579 1.6875,19.8500658 1.6875,19.3421053 L1.6875,6.44736842 Z M26.15625,0 L4.21875,0 C3.75278906,0 3.375,0.412401316 3.375,0.921052632 L3.375,4.60526316 L0.84375,4.60526316 C0.377789062,4.60526316 0,5.01766447 0,5.52631579 L0,19.3421053 C0,20.8657566 1.13547656,22.1052632 2.53125,22.1052632 L23.625,22.1052632 C25.4858906,22.1052632 27,20.4524342 27,18.4210526 L27,0.921052632 C27,0.412401316 26.6222109,0 26.15625,0 L26.15625,0 Z" id="Fill-1"></path>
                                <path d="M8.38476562,10.1315789 L13.4472656,10.1315789 C13.9113281,10.1315789 14.2910156,9.71710526 14.2910156,9.21052632 L14.2910156,5.52631579 C14.2910156,5.01973684 13.9113281,4.60526316 13.4472656,4.60526316 L8.38476562,4.60526316 C7.92070312,4.60526316 7.54101562,5.01973684 7.54101562,5.52631579 L7.54101562,9.21052632 C7.54101562,9.71710526 7.92070312,10.1315789 8.38476562,10.1315789" id="Fill-3"></path>
                                <path d="M16.875,6.44736842 L22.359375,6.44736842 C22.8253359,6.44736842 23.203125,6.03496711 23.203125,5.52631579 C23.203125,5.01766447 22.8253359,4.60526316 22.359375,4.60526316 L16.875,4.60526316 C16.4090391,4.60526316 16.03125,5.01766447 16.03125,5.52631579 C16.03125,6.03496711 16.4090391,6.44736842 16.875,6.44736842" id="Fill-5"></path>
                                <path d="M16.875,10.1315789 L22.359375,10.1315789 C22.8253359,10.1315789 23.203125,9.71917763 23.203125,9.21052632 C23.203125,8.701875 22.8253359,8.28947368 22.359375,8.28947368 L16.875,8.28947368 C16.4090391,8.28947368 16.03125,8.701875 16.03125,9.21052632 C16.03125,9.71917763 16.4090391,10.1315789 16.875,10.1315789" id="Fill-7"></path>
                                <path d="M8.015625,13.8157895 L22.359375,13.8157895 C22.8253359,13.8157895 23.203125,13.4033882 23.203125,12.8947368 C23.203125,12.3860855 22.8253359,11.9736842 22.359375,11.9736842 L8.015625,11.9736842 C7.54966406,11.9736842 7.171875,12.3860855 7.171875,12.8947368 C7.171875,13.4033882 7.54966406,13.8157895 8.015625,13.8157895" id="Fill-9"></path>
                                <path d="M22.359375,15.6578947 L8.015625,15.6578947 C7.54966406,15.6578947 7.171875,16.0702961 7.171875,16.5789474 C7.171875,17.0875987 7.54966406,17.5 8.015625,17.5 L22.359375,17.5 C22.8253359,17.5 23.203125,17.0875987 23.203125,16.5789474 C23.203125,16.0702961 22.8253359,15.6578947 22.359375,15.6578947" id="Fill-11"></path>
                            </g>
                        </g>
                    </g>
                </g>
            </g>
        </g>
    </g>
</svg>