<?xml version="1.0" encoding="UTF-8" standalone="no"?>
<svg width="9px" height="7px" viewBox="0 0 9 7" version="1.1" xmlns="http://www.w3.org/2000/svg" xmlns:xlink="http://www.w3.org/1999/xlink">
    <!-- Generator: Sketch 41.2 (35397) - http://www.bohemiancoding.com/sketch -->
    <title>Shape</title>
    <desc>Created with Sketch.</desc>
    <defs></defs>
    <g id="Symbols" stroke="none" stroke-width="1" fill="none" fill-rule="evenodd">
        <g id="Post-1-web" transform="translate(-709.000000, -399.000000)" stroke-width="0.7" stroke="#6FB9FF" fill="#6FB9FF">
            <g id="Post-1">
                <g id="Comments" transform="translate(0.000000, 356.000000)">
                    <g id="Arrow" transform="translate(698.000000, 31.000000)">
                        <path d="M15.5602815,18.3846956 C15.5847613,18.4100821 15.6153611,18.4291219 15.6459608,18.4418151 L15.6520808,18.4418151 C15.6826805,18.4545084 15.7132803,18.460855 15.75,18.460855 C15.7867197,18.460855 15.8173195,18.4545084 15.8479192,18.4418151 L15.8540392,18.4418151 C15.8846389,18.4291219 15.9152387,18.4100821 15.9397185,18.3846956 L19.4219706,14.7734711 C19.5260098,14.6655787 19.5260098,14.49422 19.4219706,14.3863276 C19.3179315,14.2784351 19.1526928,14.2784351 19.0486536,14.3863276 L16.0070379,17.5279024 L16.0070379,12.2729045 C16.0070379,12.1205857 15.8907589,12 15.74388,12 C15.5970012,12 15.4807222,12.1205857 15.4807222,12.2729045 L15.4807222,17.5342491 L12.4513464,14.3863276 C12.3473072,14.2784351 12.1820685,14.2784351 12.0780294,14.3863276 C11.9739902,14.49422 11.9739902,14.6655787 12.0780294,14.7734711 L15.5602815,18.3846956 L15.5602815,18.3846956 Z" id="Shape"></path>
                    </g>
                </g>
            </g>
        </g>
    </g>
</svg>