<?xml version="1.0" encoding="UTF-8" standalone="no"?>
<svg width="24px" height="24px" viewBox="0 0 24 24" version="1.1" xmlns="http://www.w3.org/2000/svg" xmlns:xlink="http://www.w3.org/1999/xlink">
    <!-- Generator: Sketch 41.2 (35397) - http://www.bohemiancoding.com/sketch -->
    <title>close_icon</title>
    <desc>Created with Sketch.</desc>
    <defs>
        <polygon id="path-1" points="0 23.8386905 23.8654762 23.8386905 23.8654762 0.000595238095 0 0.000595238095"></polygon>
    </defs>
    <g id="Page-1" stroke="none" stroke-width="1" fill="none" fill-rule="evenodd">
        <g id="What's-New-(M)-(Expanded-Menu)" transform="translate(-20.000000, -41.000000)">
            <g id="Top-nav" transform="translate(-1.000000, 15.000000)">
                <g id="close_icon" transform="translate(21.000000, 26.000000)">
                    <g id="Close-icon">
                        <mask id="mask-2" fill="white">
                            <use xlink:href="#path-1"></use>
                        </mask>
                        <g id="Clip-2"></g>
                        <path d="M13.6696429,11.9361905 L23.4779762,2.18142857 C23.9482143,1.71595238 23.9482143,0.962380952 23.4779762,0.498095238 C23.0089286,0.0326190476 22.2470238,0.0326190476 21.7779762,0.498095238 L11.9779762,10.2445238 L2.0875,0.352857143 C1.61845238,-0.117380952 0.856547619,-0.117380952 0.3875,0.352857143 C-0.081547619,0.824285714 -0.081547619,1.58738095 0.3875,2.05761905 L10.2708333,11.9421429 L0.351785714,21.8064286 C-0.117261905,22.2719048 -0.117261905,23.0254762 0.351785714,23.4897619 C0.820833333,23.9552381 1.5827381,23.9552381 2.05178571,23.4897619 L11.9625,13.6338095 L21.8136905,23.4861905 C22.2827381,23.9564286 23.0446429,23.9564286 23.5136905,23.4861905 C23.9827381,23.0147619 23.9827381,22.2516667 23.5136905,21.7814286 L13.6696429,11.9361905 Z" id="Fill-1" fill="#FFFFFF" mask="url(#mask-2)"></path>
                    </g>
                </g>
            </g>
        </g>
    </g>
</svg>