<?xml version="1.0" encoding="UTF-8" standalone="no"?>
<svg width="19px" height="19px" viewBox="0 0 19 19" version="1.1" xmlns="http://www.w3.org/2000/svg" xmlns:xlink="http://www.w3.org/1999/xlink">
    <!-- Generator: Sketch 41.2 (35397) - http://www.bohemiancoding.com/sketch -->
    <title>Fill 1</title>
    <desc>Created with Sketch.</desc>
    <defs></defs>
    <g id="Page-1" stroke="none" stroke-width="1" fill="none" fill-rule="evenodd">
        <g id="Log-in" transform="translate(-869.000000, -247.000000)" fill="#56A7F3">
            <path d="M878.5,253.084511 L873.122842,247.70742 C872.179736,246.764308 870.650559,246.764259 869.707453,247.70742 C868.764297,248.650581 868.764248,250.179816 869.707453,251.122928 L875.084611,256.499969 L869.707403,261.877109 C868.764199,262.820319 868.764199,264.349407 869.707403,265.292617 C870.650559,266.235827 872.179736,266.235778 873.122842,265.292568 L878.500049,259.915428 L883.875827,265.291188 C884.820264,266.235778 886.349343,266.235679 887.292498,265.292469 C888.235752,264.349308 888.235752,262.82027 887.292498,261.87706 L881.915438,256.499969 L887.291217,251.12416 C888.235801,250.179668 888.235801,248.650581 887.292597,247.70742 C886.349441,246.76421 884.820363,246.76421 883.877158,247.707321 L878.5,253.084511 Z" id="Fill-1"></path>
        </g>
    </g>
</svg>