<?xml version="1.0" encoding="UTF-8" standalone="no"?>
<svg width="17px" height="17px" viewBox="0 0 17 17" version="1.1" xmlns="http://www.w3.org/2000/svg" xmlns:xlink="http://www.w3.org/1999/xlink">
    <!-- Generator: Sketch 42 (36781) - http://www.bohemiancoding.com/sketch -->
    <title>Shape</title>
    <desc>Created with Sketch.</desc>
    <defs></defs>
    <g id="Page-1" stroke="none" stroke-width="1" fill="none" fill-rule="evenodd">
        <g id="Show-Page" transform="translate(-688.000000, -795.000000)" fill="#56A7F3">
            <g id="Content" transform="translate(84.000000, 115.000000)">
                <g id="Homepage" transform="translate(570.000000, 666.000000)">
                    <path d="M50.5193221,22.0738386 L42.4956211,14.0811042 C42.3875093,13.9729653 42.2123937,13.9729653 42.1042548,14.0811042 L34.0802826,22.0738386 C33.9721437,22.1819775 33.9743401,22.3545714 34.0802826,22.4641203 C34.1344877,22.5199794 34.2052878,22.5484513 34.2755455,22.5490207 L34.2755455,22.5501325 L36.2127451,22.5501325 L36.2127451,30.2745534 C36.2127451,30.3508851 36.2437116,30.4192176 36.2937679,30.4690027 C36.3438242,30.5193302 36.4129702,30.550595 36.4893019,30.550595 L40.3614775,30.550595 C40.514141,30.550595 40.6380615,30.4267017 40.6380615,30.2745534 L40.6380615,24.7578149 L43.9570962,24.7578149 L43.9570962,30.2745534 C43.9570962,30.4264034 44.0809896,30.550595 44.2336802,30.550595 L48.1058558,30.550595 C48.2585193,30.550595 48.3824398,30.4267017 48.3824398,30.2745534 L48.3824398,22.5501325 L50.3320585,22.5501325 C50.4045398,22.5515154 50.472818,22.5230164 50.519295,22.4643915 C50.6133607,22.3440774 50.6274881,22.1819775 50.5193221,22.0738386 Z" id="Shape"></path>
                </g>
            </g>
        </g>
    </g>
</svg>