<?xml version="1.0" encoding="UTF-8" standalone="no"?>
<svg width="16px" height="16px" viewBox="0 0 16 16" version="1.1" xmlns="http://www.w3.org/2000/svg" xmlns:xlink="http://www.w3.org/1999/xlink">
    <!-- Generator: Sketch 42 (36781) - http://www.bohemiancoding.com/sketch -->
    <title>Shape</title>
    <desc>Created with Sketch.</desc>
    <defs></defs>
    <g id="Symbols" stroke="none" stroke-width="1" fill="none" fill-rule="evenodd">
        <g id="rate" transform="translate(-22.000000, -15.000000)" fill="#FFFFFF">
            <g id="Group-5">
                <g id="Group">
                    <path d="M30.7724691,15.473391 L32.5770664,19.0769844 C32.7025572,19.3276176 32.9451949,19.5012848 33.2258804,19.5414124 L37.2612763,20.1193162 C37.9681632,20.220622 38.2501836,21.076459 37.7388755,21.5675292 L34.8188789,24.3725168 C34.6159576,24.5675634 34.5231746,24.8487858 34.5712349,25.1240877 L35.2604328,29.0848828 C35.3812511,29.7785647 34.642324,30.3074601 34.0101977,29.9801896 L30.4010031,28.1103075 C30.1500215,27.980386 29.8499785,27.980386 29.5989969,28.1103075 L25.9898023,29.9801896 C25.357676,30.307789 24.6187489,29.7785647 24.7395672,29.0848828 L25.4287651,25.1240877 C25.4768254,24.8487858 25.3840424,24.5675634 25.1811211,24.3725168 L22.2611245,21.5675292 C21.7498164,21.0761301 22.0318368,20.2202931 22.7387237,20.1193162 L26.7741196,19.5414124 C27.0548051,19.5012848 27.2974428,19.3276176 27.4229336,19.0769844 L29.2275309,15.473391 C29.5432603,14.842203 30.4564059,14.842203 30.7724691,15.473391 Z" id="Shape"></path>
                </g>
            </g>
        </g>
    </g>
</svg>