<?xml version="1.0" encoding="UTF-8" standalone="no"?>
<svg width="12px" height="13px" viewBox="0 0 12 13" version="1.1" xmlns="http://www.w3.org/2000/svg" xmlns:xlink="http://www.w3.org/1999/xlink">
    <!-- Generator: Sketch 41.2 (35397) - http://www.bohemiancoding.com/sketch -->
    <title>Shape</title>
    <desc>Created with Sketch.</desc>
    <defs></defs>
    <g id="Symbols" stroke="none" stroke-width="1" fill="none" fill-rule="evenodd">
        <g id="Left-Nav" transform="translate(-277.000000, -563.000000)" stroke-width="0.8" stroke="#6FB9FF" fill="#6FB9FF">
            <g id="Top-Shows">
                <g transform="translate(41.000000, 267.210526)">
                    <path d="M241.847409,307.444749 C241.901265,307.464039 241.946144,307.473684 242,307.473684 C242.053856,307.473684 242.098735,307.464039 242.143615,307.444749 C242.19747,307.425459 242.24235,307.396523 242.278254,307.357943 L247.385557,301.869857 C247.538148,301.70589 247.538148,301.445471 247.385557,301.281504 C247.232966,301.117536 246.990616,301.117536 246.838025,301.281504 L242.376989,306.055849 L242.438207,297.362109 C242.438207,297.130626 242.267665,296.947368 242.052243,296.947368 C241.83682,296.947368 241.666278,297.130626 241.666278,297.362109 L241.605059,306.065494 L237.161975,301.281504 C237.009384,301.117536 236.767034,301.117536 236.614443,301.281504 C236.461852,301.445471 236.461852,301.70589 236.614443,301.869857 L241.721746,307.357943 C241.75765,307.396523 241.80253,307.425459 241.847409,307.444749 Z" id="Shape" transform="translate(242.000000, 302.210526) rotate(-90.000000) translate(-242.000000, -302.210526) "></path>
                </g>
            </g>
        </g>
    </g>
</svg>