<?xml version="1.0" encoding="UTF-8" standalone="no"?>
<svg width="28px" height="20px" viewBox="0 0 28 20" version="1.1" xmlns="http://www.w3.org/2000/svg" xmlns:xlink="http://www.w3.org/1999/xlink">
    <!-- Generator: Sketch 41.2 (35397) - http://www.bohemiancoding.com/sketch -->
    <title>Page 1</title>
    <desc>Created with Sketch.</desc>
    <defs></defs>
    <g id="Symbols" stroke="none" stroke-width="1" fill="none" fill-rule="evenodd">
        <g id="TopNav_mobile_collapse" transform="translate(-20.000000, -33.000000)" fill="#FFFFFF">
            <path d="M46,49 L22,49 C20.896,49 20,49.896 20,51 C20,52.104 20.896,53 22,53 L46,53 C47.104,53 48,52.104 48,51 C48,49.896 47.104,49 46,49 M46,41 L22,41 C20.896,41 20,41.896 20,43 C20,44.104 20.896,45 22,45 L46,45 C47.104,45 48,44.104 48,43 C48,41.896 47.104,41 46,41 M22,37 L46,37 C47.104,37 48,36.104 48,35 C48,33.896 47.104,33 46,33 L22,33 C20.896,33 20,33.896 20,35 C20,36.104 20.896,37 22,37" id="Page-1"></path>
        </g>
    </g>
</svg>