<?xml version="1.0" encoding="UTF-8" standalone="no"?>
<svg width="18px" height="12px" viewBox="0 0 18 12" version="1.1" xmlns="http://www.w3.org/2000/svg" xmlns:xlink="http://www.w3.org/1999/xlink">
    <!-- Generator: Sketch 41.2 (35397) - http://www.bohemiancoding.com/sketch -->
    <title>filtler</title>
    <desc>Created with Sketch.</desc>
    <defs></defs>
    <g id="Page-1" stroke="none" stroke-width="1" fill="none" fill-rule="evenodd">
        <g id="What's-new" transform="translate(-874.000000, -255.000000)" fill="#56A7F3">
            <g id="Customize" transform="translate(433.000000, 238.000000)">
                <g id="Group-2" transform="translate(293.000000, 11.000000)">
                    <g id="ic/fitler" transform="translate(145.000000, 0.000000)">
                        <g id="ic/tune" transform="translate(3.000000, 6.000000)">
                            <path d="M0,1.99999988 L0,3.99999976 L9.9999994,3.99999976 L9.9999994,1.99999988 L0,1.99999988 L0,1.99999988 Z M3.99999976,5.99999964 L3.99999976,7.99999952 L0,7.99999952 L0,9.9999994 L3.99999976,9.9999994 L3.99999976,11.9999993 L5.99999964,11.9999993 L5.99999964,5.99999964 L3.99999976,5.99999964 L3.99999976,5.99999964 Z M17.9999989,9.9999994 L17.9999989,7.99999952 L7.99999952,7.99999952 L7.99999952,9.9999994 L17.9999989,9.9999994 L17.9999989,9.9999994 Z M11.9999993,5.99999964 L13.9999992,5.99999964 L13.9999992,3.99999976 L17.9999989,3.99999976 L17.9999989,1.99999988 L13.9999992,1.99999988 L13.9999992,0 L11.9999993,0 L11.9999993,5.99999964 L11.9999993,5.99999964 Z" id="Fill-2"></path>
                        </g>
                    </g>
                </g>
            </g>
        </g>
    </g>
</svg>