<?xml version="1.0" encoding="UTF-8" standalone="no"?>
<svg width="181px" height="32px" viewBox="0 0 181 32" version="1.1" xmlns="http://www.w3.org/2000/svg" xmlns:xlink="http://www.w3.org/1999/xlink">
    <!-- Generator: Sketch 43 (38999) - http://www.bohemiancoding.com/sketch -->
    <title>Logo</title>
    <desc>Created with Sketch.</desc>
    <defs>
        <polygon id="path-1" points="0.0779974221 24.6985215 15.5210199 24.6985215 15.5210199 0.584120033 0.0779974221 0.584120033"></polygon>
        <polygon id="path-3" points="17.6317376 24.3295138 17.6317376 0.521903281 0.132233653 0.521903281 0.132233653 24.3295138 17.6317376 24.3295138"></polygon>
    </defs>
    <g id="Page-1" stroke="none" stroke-width="1" fill="none" fill-rule="evenodd">
        <g id="Favorites" transform="translate(-45.000000, -13.000000)">
            <g id="Top-nav" transform="translate(0.000000, -5.000000)">
                <g id="Logo-+-Subline" transform="translate(45.000000, 18.000000)">
                    <g id="Logo">
                        <path d="M1.28106095,0.588060035 L1.28106095,11.1160988 L1.34878326,11.1160988 C2.22508664,8.50158392 4.85516438,6.97262783 7.55296443,6.97262783 C13.6555621,6.97262783 13.7232844,11.8976306 13.7232844,14.0375811 L13.7232844,24.8373036 L12.4418148,24.8373036 L12.4418148,13.8000048 C12.4418148,11.9999531 12.2398155,8.09405832 7.51910328,8.09405832 C3.64141707,8.09405832 1.28106095,11.1160988 1.28106095,15.3959998 L1.28106095,24.8373036 L0.000175143912,24.8373036 L0.000175143912,0.588060035 L1.28106095,0.588060035 Z" id="Fill-1" fill="#FEFEFE"></path>
                        <path d="M15.4080521,7.38062389 L16.9253822,7.38062389 L23.3654238,23.3094061 L29.2998834,7.38062389 L30.7494912,7.38062389 L23.3315627,26.7054528 C22.6239813,28.4043582 22.0506769,29.7286694 21.3086505,30.3055563 C20.398486,31.0188731 19.218016,31.0870881 17.2628261,31.0870881 L17.2628261,29.9656576 C19.0831552,29.9656576 19.9939035,29.7286694 20.8702069,28.8454032 C21.3763728,28.3361432 21.8480938,27.0447634 22.6572586,24.7360397 L15.4080521,7.38062389 Z" id="Fill-3" fill="#FEFEFE"></path>
                        <g id="Group-7" transform="translate(32.693530, 6.388567)">
                            <mask id="mask-2" fill="white">
                                <use xlink:href="#path-1"></use>
                            </mask>
                            <g id="Clip-6"></g>
                            <path d="M14.2395503,9.75491628 C14.2395503,5.78080656 12.3853601,1.70555052 7.73237018,1.70555052 C3.1126576,1.70555052 1.3933282,5.61144527 1.3933282,9.75491628 C1.3933282,13.8983873 2.84293598,17.735479 7.73237018,17.735479 C12.2504993,17.735479 14.2395503,14.0677486 14.2395503,9.75491628 L14.2395503,9.75491628 Z M1.35946704,4.99986283 L1.42718936,4.99986283 C1.9666326,3.26743797 3.92182247,0.584120033 7.73237018,0.584120033 C13.0596642,0.584120033 15.5210199,4.82991348 15.5210199,9.75491628 C15.5210199,15.0527491 13.025803,18.8569095 7.73237018,18.8569095 C4.86584816,18.8569095 2.43835354,17.6337446 1.42718936,14.8145848 L1.35946704,14.8145848 L1.35946704,24.6986979 L0.0779974221,24.6986979 L0.0779974221,0.992233697 L1.35946704,0.992233697 L1.35946704,4.99986283 Z" id="Fill-5" fill="#FEFEFE" mask="url(#mask-2)"></path>
                        </g>
                        <path d="M64.432059,15.1585999 C64.3643367,11.4902814 62.0717029,8.09364668 58.0930171,8.09364668 C54.249192,8.09364668 51.9898355,11.6937502 51.7206977,15.1585999 L64.432059,15.1585999 Z M51.7206977,16.2788543 C51.6529754,20.3888059 53.8107484,24.1241632 58.0930171,24.1241632 C61.3635377,24.1241632 63.6900327,22.1541621 64.2971982,18.9280648 L65.5786678,18.9280648 C64.9043638,23.0039089 62.2065637,25.2450057 58.0930171,25.2450057 C53.0354447,25.2450057 50.3720896,21.2373765 50.4392281,16.4152842 C50.3720896,11.6261233 52.8667227,6.97280425 58.0930171,6.97280425 C63.5213107,6.97280425 65.9493891,11.2868127 65.7135287,16.2788543 L51.7206977,16.2788543 Z" id="Fill-8" fill="#FEFEFE"></path>
                        <path d="M83.616389,7.21061573 C83.1440843,5.07066526 80.8520343,4.15446773 78.795261,4.18798715 C77.2102085,4.22209463 75.457018,4.7654621 74.5129923,5.98803892 C74.0406876,6.59962135 73.8725494,7.38056508 73.9396879,8.19561629 C74.1084099,10.6407699 76.771765,10.9471492 79.3002592,11.1847254 C82.5375025,11.592251 86.5500496,12.4414097 87.4602141,16.244982 C87.5617975,16.754242 87.628936,17.331717 87.628936,17.8074576 C87.628936,22.3919736 83.1108069,25.0417721 78.8623995,25.0417721 C75.2211575,25.0417721 70.8040281,22.8677142 70.3655845,18.6225088 L70.3317233,17.9774069 L73.7709659,17.9091919 L73.8048271,18.41904 L73.8048271,18.2826101 C74.0406876,20.4901874 76.7046265,21.6451373 78.8962606,21.6451373 C81.4247549,21.6451373 84.1896934,20.2185037 84.1896934,17.7733501 C84.1896934,17.5357738 84.1564161,17.2640901 84.0886938,16.9582989 C83.6841113,15.1588352 81.2566167,14.8524559 78.8962606,14.6148796 C75.2211575,14.2414615 70.9050277,13.4258222 70.5343064,8.46730002 L70.5343064,8.50140751 C70.3994456,6.90482451 70.8040281,5.30882958 71.8151923,3.98451838 C73.4002447,1.91219482 76.2323217,0.826047931 78.9633991,0.826047931 C82.6052248,0.826047931 86.3813276,2.72783408 86.9884931,7.07536192 L83.616389,7.21061573 Z" id="Fill-10" fill="#FEFEFE"></path>
                        <path d="M92.3478968,4.49430762 C94.4046702,2.3537691 97.3044695,0.961830993 100.508436,0.961830993 C105.902868,0.961830993 110.151275,4.35787769 111.499884,9.72451357 L108.127779,9.72451357 C106.880755,6.15792946 103.980955,4.35787769 100.508436,4.35787769 C98.2484952,4.35787769 96.1923057,5.34287825 94.708253,6.90535377 C93.224784,8.46724122 92.2807583,10.5736723 92.2807583,13.0188259 C92.2807583,15.3957645 93.224784,17.5016075 94.708253,19.064083 C96.1923057,20.6265586 98.2484952,21.6109711 100.508436,21.6109711 C104.081955,21.6109711 107.116615,19.5392356 108.330363,15.9397201 L111.668606,15.9397201 C110.319414,21.3398754 106.003868,25.0076058 100.508436,25.0076058 C97.3044695,25.0076058 94.4046702,23.6485991 92.3478968,21.4751292 C90.3249847,19.3022474 88.9763765,16.3131382 88.9763765,13.0188259 C88.9763765,9.65571055 90.3249847,6.66777751 92.3478968,4.49430762" id="Fill-12" fill="#FEFEFE"></path>
                        <path d="M118.006597,12.781132 L121.984699,12.781132 C124.851221,12.781132 126.266967,10.7093965 126.266967,8.63766102 C126.266967,6.59944494 124.851221,4.52770943 121.984699,4.52770943 L116.758404,4.52770943 L116.758404,24.8375389 L113.386884,24.8375389 L113.386884,1.06344777 L121.984699,1.06344777 C127.110577,1.06344777 129.672349,4.86760813 129.672349,8.63766102 C129.672349,12.0001883 127.616159,15.1927662 123.569751,15.905495 L131.021541,24.8375389 L126.604995,24.8375389 L118.006597,14.4106464 L118.006597,12.781132 Z" id="Fill-14" fill="#FEFEFE"></path>
                        <polygon id="Fill-16" fill="#FEFEFE" points="134.762731 21.4073259 145.721486 21.4073259 145.721486 24.8374801 131.323489 24.8374801 131.323489 1.09749644 145.687625 1.09749644 145.687625 4.52765063 134.762731 4.52765063 134.762731 11.2185977 145.451764 11.2185977 145.451764 14.6828594 134.762731 14.6828594"></polygon>
                        <polygon id="Fill-18" fill="#FEFEFE" points="150.541622 21.4073259 161.500376 21.4073259 161.500376 24.8374801 147.102379 24.8374801 147.102379 1.09749644 161.466515 1.09749644 161.466515 4.52765063 150.541622 4.52765063 150.541622 11.2185977 161.230655 11.2185977 161.230655 14.6828594 150.541622 14.6828594"></polygon>
                        <g id="Group-22" transform="translate(162.883838, 0.507966)">
                            <mask id="mask-4" fill="white">
                                <use xlink:href="#path-3"></use>
                            </mask>
                            <g id="Clip-21"></g>
                            <polygon id="Fill-20" fill="#FEFEFE" mask="url(#mask-4)" points="0.132233653 24.3295138 0.132233653 0.521903281 2.7623114 0.555422703 14.2599254 17.2992561 14.2599254 0.555422703 17.6320295 0.555422703 17.6320295 24.3295138 14.9342295 24.3295138 3.53761511 7.72152229 3.53761511 24.3295138"></polygon>
                        </g>
                    </g>
                </g>
            </g>
        </g>
    </g>
</svg>