<?xml version="1.0" encoding="UTF-8" standalone="no"?>
<svg width="26px" height="32px" viewBox="0 0 26 32" version="1.1" xmlns="http://www.w3.org/2000/svg" xmlns:xlink="http://www.w3.org/1999/xlink">
    <!-- Generator: Sketch 41.2 (35397) - http://www.bohemiancoding.com/sketch -->
    <title>youtube-logotype</title>
    <desc>Created with Sketch.</desc>
    <defs></defs>
    <g id="Symbols" stroke="none" stroke-width="1" fill="none" fill-rule="evenodd">
        <g id="Post-1-web" transform="translate(-703.000000, -291.000000)">
            <g id="Post-1">
                <g id="youtube-logotype" transform="translate(703.000000, 291.000000)">
                    <g id="Capa_1">
                        <g>
                            <g id="Group">
                                <path d="M22.4883247,14.1252308 C22.2084416,12.8726154 21.2137662,11.9486154 20.0165714,11.8110769 C17.1821948,11.4849231 14.311974,11.4833846 11.4557922,11.4849231 C8.59841558,11.4833846 5.72879221,11.4849231 2.89351948,11.8110769 C1.69692208,11.9489231 0.702844156,12.8729231 0.42325974,14.1252308 C0.0247922078,15.9089231 0.020012987,17.856 0.020012987,19.6926154 C0.020012987,21.5292308 0.020012987,23.476 0.418480519,25.2596923 C0.698064935,26.512 1.69214286,27.436 2.88933766,27.5738462 C5.72401299,27.9003077 8.59363636,27.9015385 11.4507143,27.9003077 C14.3080909,27.9018462 17.1771169,27.9003077 20.0126883,27.5738462 C21.2092857,27.436 22.203961,26.512 22.4835455,25.2596923 C22.8817143,23.476 22.8838052,21.5292308 22.8838052,19.6926154 C22.8835065,17.8556923 22.8864935,15.9089231 22.4883247,14.1252308 Z M6.54155844,15.5076923 L4.88675325,15.5076923 L4.88675325,24.5655385 L3.34963636,24.5655385 L3.34963636,15.5076923 L1.725,15.5076923 L1.725,14.024 L6.54155844,14.024 L6.54155844,15.5076923 Z M10.7165065,24.5658462 L9.33381818,24.5658462 L9.33381818,23.7089231 C8.78450649,24.3575385 8.26297403,24.6738462 7.75488312,24.6738462 C7.30951948,24.6738462 7.00305195,24.488 6.86475325,24.0901538 C6.78948052,23.8526154 6.74288312,23.4766154 6.74288312,22.9221538 L6.74288312,16.7110769 L8.12437662,16.7110769 L8.12437662,22.4941538 C8.12437662,22.8276923 8.12437662,23.0009231 8.13692208,23.0476923 C8.17007792,23.2686154 8.27492208,23.3806154 8.46011688,23.3806154 C8.73731169,23.3806154 9.02705195,23.1606154 9.33351948,22.7141538 L9.33351948,16.7110769 L10.7162078,16.7110769 L10.7165065,24.5658462 L10.7165065,24.5658462 Z M15.9655844,22.2083077 C15.9655844,22.9347692 15.9180909,23.4581538 15.8257922,23.7910769 C15.6411948,24.3753846 15.2717013,24.6738462 14.7220909,24.6738462 C14.2304286,24.6738462 13.7560909,24.3926154 13.294,23.8049231 L13.294,24.5661538 L11.9125065,24.5661538 L11.9125065,14.024 L13.294,14.024 L13.294,17.4667692 C13.7402597,16.9009231 14.214,16.6147692 14.7220909,16.6147692 C15.2717013,16.6147692 15.6414935,16.9129231 15.8257922,17.5009231 C15.9186883,17.8169231 15.9655844,18.3363077 15.9655844,19.08 L15.9655844,22.2083077 Z M21.180013,20.8978462 L18.4167273,20.8978462 L18.4167273,22.2901538 C18.4167273,23.0172308 18.6476234,23.3803077 19.1225584,23.3803077 C19.4627792,23.3803077 19.6608182,23.1898462 19.7396753,22.8095385 C19.7525195,22.7323077 19.7707403,22.416 19.7707403,21.8452308 L21.1803117,21.8452308 L21.1803117,22.0529231 C21.1803117,22.5116923 21.1632857,22.8276923 21.1507403,22.9698462 C21.1044416,23.2849231 20.9957143,23.5707692 20.8281429,23.8224615 C20.4455065,24.3929231 19.8785714,24.6741538 19.1569091,24.6741538 C18.4340519,24.6741538 17.8838442,24.4061538 17.4844805,23.8698462 C17.1914545,23.4766154 17.0409091,22.8575385 17.0409091,22.0227692 L17.0409091,19.2716923 C17.0409091,18.432 17.1744286,17.8178462 17.4680519,17.4209231 C17.8671169,16.8833846 18.417026,16.6156923 19.1228571,16.6156923 C19.8161429,16.6156923 20.3657532,16.8833846 20.7528701,17.4209231 C21.0423117,17.8178462 21.1806104,18.432 21.1806104,19.2716923 L21.1806104,20.8978462 L21.180013,20.8978462 Z" id="Shape" fill="#E74A34"></path>
                                <path d="M19.1103117,17.8963077 C18.6485195,17.8963077 18.417026,18.2596923 18.417026,18.9858462 L18.417026,19.7126154 L19.7985195,19.7126154 L19.7985195,18.9858462 C19.7982208,18.2596923 19.5673247,17.8963077 19.1103117,17.8963077 Z" id="Shape" fill="#E64A34"></path>
                                <path d="M13.9828052,17.8963077 C13.7551948,17.8963077 13.5245974,18.0070769 13.2937013,18.2424615 L13.2937013,23.0298462 C13.5242987,23.268 13.7551948,23.3806154 13.9828052,23.3806154 C14.3812727,23.3806154 14.5837922,23.0298462 14.5837922,22.3206154 L14.5837922,18.968 C14.5837922,18.2596923 14.3812727,17.8963077 13.9828052,17.8963077 Z" id="Shape" fill="#E64A34"></path>
                                <path d="M14.7546494,10.7609231 C15.2639351,10.7609231 15.7938312,10.4421538 16.3497143,9.78615385 L16.3497143,10.652 L17.7461429,10.652 L17.7461429,2.71384615 L16.3497143,2.71384615 L16.3497143,8.78092308 C16.0402597,9.23138462 15.7469351,9.45415385 15.4676494,9.45415385 C15.2806623,9.45415385 15.1707403,9.34030769 15.1402727,9.11723077 C15.1232468,9.07015385 15.1232468,8.89507692 15.1232468,8.55815385 L15.1232468,2.71384615 L13.7312987,2.71384615 L13.7312987,8.99076923 C13.7312987,9.55138462 13.7778961,9.93076923 13.854961,10.1710769 C13.9953506,10.5732308 14.3051039,10.7609231 14.7546494,10.7609231 Z" id="Shape" fill="#434343"></path>
                                <path d="M5.03341558,6.33784615 L5.03341558,10.652 L6.58188312,10.652 L6.58188312,6.33784615 L8.44458442,0 L6.87879221,0 L5.82228571,4.18307692 L4.72306494,0 L3.09364935,0 C3.42012987,0.987384615 3.75975325,1.97969231 4.08623377,2.968 C4.58297403,4.45353846 4.89302597,5.57353846 5.03341558,6.33784615 Z" id="Shape" fill="#434343"></path>
                                <path d="M10.519961,10.7609231 C11.2195195,10.7609231 11.7631558,10.4898462 12.1487792,9.94830769 C12.4418052,9.55107692 12.5821948,8.92523077 12.5821948,8.08153846 L12.5821948,5.30184615 C12.5821948,4.45323077 12.4421039,3.83292308 12.1487792,3.432 C11.7631558,2.88892308 11.2198182,2.61784615 10.519961,2.61784615 C9.82398701,2.61784615 9.28064935,2.88892308 8.89412987,3.432 C8.59751948,3.83292308 8.45712987,4.45323077 8.45712987,5.30184615 L8.45712987,8.08153846 C8.45712987,8.92523077 8.59751948,9.55107692 8.89412987,9.94830769 C9.28035065,10.4898462 9.82398701,10.7609231 10.519961,10.7609231 Z M9.85355844,5.01353846 C9.85355844,4.27907692 10.0698182,3.91292308 10.519961,3.91292308 C10.9701039,3.91292308 11.1857662,4.27876923 11.1857662,5.01353846 L11.1857662,8.35261538 C11.1857662,9.08707692 10.9701039,9.45446154 10.519961,9.45446154 C10.0698182,9.45446154 9.85355844,9.08707692 9.85355844,8.35261538 L9.85355844,5.01353846 Z" id="Shape" fill="#434343"></path>
                            </g>
                        </g>
                    </g>
                </g>
            </g>
        </g>
    </g>
</svg>